<svg width="30" height="20" viewBox="0 0 30 20" fill="none" xmlns="http://www.w3.org/2000/svg">
<g clip-path="url(#clip0_974_655)">
<path d="M12.5003 11.2498H28.7503C28.9171 11.26 29.0842 11.2347 29.2405 11.1755C29.3967 11.1163 29.5387 11.0245 29.6569 10.9064C29.775 10.7882 29.8668 10.6463 29.926 10.49C29.9852 10.3337 30.0105 10.1666 30.0003 9.99977C30.0105 9.83295 29.9852 9.66587 29.926 9.50958C29.8668 9.35328 29.775 9.21135 29.6569 9.09317C29.5387 8.97499 29.3967 8.88327 29.2405 8.82407C29.0842 8.76487 28.9171 8.73954 28.7503 8.74977H12.5003C12.3334 8.73954 12.1664 8.76487 12.0101 8.82407C11.8538 8.88327 11.7118 8.97499 11.5937 9.09317C11.4755 9.21135 11.3838 9.35328 11.3246 9.50958C11.2654 9.66587 11.24 9.83295 11.2503 9.99977C11.24 10.1666 11.2654 10.3337 11.3246 10.49C11.3838 10.6463 11.4755 10.7882 11.5937 10.9064C11.7118 11.0245 11.8538 11.1163 12.0101 11.1755C12.1664 11.2347 12.3334 11.26 12.5003 11.2498V11.2498ZM1.25026 2.49977H28.7503C28.9171 2.51 29.0842 2.48467 29.2405 2.42547C29.3967 2.36627 29.5387 2.27455 29.6569 2.15637C29.775 2.03819 29.8668 1.89626 29.926 1.73996C29.9852 1.58367 30.0105 1.41659 30.0003 1.24977C30.0105 1.08295 29.9852 0.915869 29.926 0.759577C29.8668 0.603284 29.775 0.461351 29.6569 0.343173C29.5387 0.224995 29.3967 0.133269 29.2405 0.0740682C29.0842 0.0148675 28.9171 -0.0104574 28.7503 -0.00022969H1.25026C1.08344 -0.0104574 0.916358 0.0148675 0.760065 0.0740682C0.603773 0.133269 0.461839 0.224995 0.343661 0.343173C0.225483 0.461351 0.133757 0.603284 0.0745565 0.759577C0.0153558 0.915869 -0.00996907 1.08295 0.000258591 1.24977C-0.00996907 1.41659 0.0153558 1.58367 0.0745565 1.73996C0.133757 1.89626 0.225483 2.03819 0.343661 2.15637C0.461839 2.27455 0.603773 2.36627 0.760065 2.42547C0.916358 2.48467 1.08344 2.51 1.25026 2.49977V2.49977ZM1.25026 19.9998H28.7503C29.0818 19.9998 29.3997 19.8681 29.6341 19.6337C29.8686 19.3992 30.0003 19.0813 30.0003 18.7498C30.0003 18.4183 29.8686 18.1003 29.6341 17.8659C29.3997 17.6315 29.0818 17.4998 28.7503 17.4998H1.25026C0.918738 17.4998 0.600796 17.6315 0.366375 17.8659C0.131955 18.1003 0.000258591 18.4183 0.000258591 18.7498C0.000258591 19.0813 0.131955 19.3992 0.366375 19.6337C0.600796 19.8681 0.918738 19.9998 1.25026 19.9998V19.9998Z" fill="#F2F2F2"/>
</g>
<defs>
<clipPath id="clip0_974_655">
<rect width="30" height="20" fill="white"/>
</clipPath>
</defs>
</svg>
