<svg xmlns="http://www.w3.org/2000/svg"><symbol id="caret-down" viewBox="0 0 16 28"><title>caret-down</title><path fill="currentColor" d="M16 11a.99.99 0 0 1-.297.703l-7 7C8.516 18.89 8.265 19 8 19s-.516-.109-.703-.297l-7-7A.996.996 0 0 1 0 11c0-.547.453-1 1-1h14c.547 0 1 .453 1 1z"/></symbol><symbol id="checklist" viewBox="0 0 48 48"><title>checklist</title><path fill="#fff" d="M21.55 41.3H9q-1.2 0-2.1-.9-.9-.9-.9-2.1V9.2q0-1.2.775-2.1.775-.9 1.325-.9h10.1q.35-1.75 1.725-2.875T23.1 2.2q1.8 0 3.175 1.125Q27.65 4.45 28 6.2h10.1q1.2 0 2.1.9.9.9.9 2.1v10.15h-3V9.2h-5.3v6.5H14.3V9.2H9v29.1h12.55ZM31 40.05l-8-8 2.15-2.15L31 35.75 42.95 23.8l2.15 2.15ZM24 9q.85 0 1.425-.575Q26 7.85 26 7q0-.85-.575-1.425Q24.85 5 24 5q-.85 0-1.425.575Q22 6.15 22 7q0 .85.575 1.425Q23.15 9 24 9Z"/></symbol><symbol id="clipboard" viewBox="0 0 48 48"><title>clipboard</title><path fill="#fff" d="M9 42q-1.25 0-2.125-.875T6 39V9q0-1.25.875-2.125T9 6h10.25q.25-1.75 1.6-2.875T24 2q1.8 0 3.15 1.125Q28.5 4.25 28.75 6H39q1.25 0 2.125.875T42 9v30q0 1.25-.875 2.125T39 42Zm0-3h30V9H9v30Zm5-5h13.65v-3H14Zm0-8.5h20v-3H14Zm0-8.5h20v-3H14Zm10-8.85q.7 0 1.225-.525.525-.525.525-1.225 0-.7-.525-1.225Q24.7 4.65 24 4.65q-.7 0-1.225.525-.525.525-.525 1.225 0 .7.525 1.225.525.525 1.225.525ZM9 39V9v30Z"/></symbol><symbol id="close" viewBox="0 0 22.5 22.27"><defs><style>.e976b01e-b823-4a33-afa4-7e423e5efc07{fill:#303536}</style></defs><title>close</title><g id="bc0933f0-4035-477f-a26f-3729a5f20fc6" data-name="Layer 2"><g id="ac142a7b-f51d-4aa6-8dfb-c0c4fdfa64fb" data-name="Layer 1"><path class="e976b01e-b823-4a33-afa4-7e423e5efc07" d="m.4 2.17 19.44 19.44a1.25 1.25 0 1 0 1.77-1.77L2.17.4A1.18 1.18 0 0 0 .4.4a1.18 1.18 0 0 0 0 1.77Z"/><path class="e976b01e-b823-4a33-afa4-7e423e5efc07" d="M2.66 21.87 22.1 2.43a1.18 1.18 0 0 0 0-1.77 1.18 1.18 0 0 0-1.77 0L.89 20.1a1.18 1.18 0 0 0 0 1.77 1.18 1.18 0 0 0 1.77 0Z"/></g></g></symbol><symbol id="facebook-square" viewBox="0 0 24 28"><title>facebook-square</title><path fill="currentColor" d="M19.5 2q1.859 0 3.18 1.32T24 6.5v15q0 1.859-1.32 3.18T19.5 26h-2.938v-9.297h3.109l.469-3.625h-3.578v-2.312q0-.875.367-1.313t1.43-.438l1.906-.016V5.765q-.984-.141-2.781-.141-2.125 0-3.398 1.25t-1.273 3.531v2.672H9.688v3.625h3.125v9.297H4.5q-1.859 0-3.18-1.32T0 21.499v-15q0-1.859 1.32-3.18t3.18-1.32h15z"/></symbol><symbol fill="none" id="hamburger" viewBox="0 0 30 20"><title>hamburger</title><g clip-path="url(#a)"><path d="M12.5 11.25h16.25A1.18 1.18 0 0 0 30 10a1.18 1.18 0 0 0-1.25-1.25H12.5A1.18 1.18 0 0 0 11.25 10a1.179 1.179 0 0 0 1.25 1.25ZM1.25 2.5h27.5A1.18 1.18 0 0 0 30 1.25 1.18 1.18 0 0 0 28.75 0H1.25A1.18 1.18 0 0 0 0 1.25 1.18 1.18 0 0 0 1.25 2.5Zm0 17.5h27.5a1.25 1.25 0 0 0 0-2.5H1.25a1.25 1.25 0 0 0 0 2.5Z" fill="#F2F2F2"/></g><defs><clipPath id="a"><path fill="#fff" d="M0 0h30v20H0z"/></clipPath></defs></symbol><symbol id="instagram-square" viewBox="0 0 27 32"><title>instagram-square</title><path fill="currentColor" d="M18.286 16q0-1.893-1.339-3.232t-3.232-1.339-3.232 1.339T9.144 16t1.339 3.232 3.232 1.339 3.232-1.339T18.286 16zm2.464 0q0 2.929-2.054 4.982t-4.982 2.054-4.982-2.054T6.678 16t2.054-4.982 4.982-2.054 4.982 2.054T20.75 16zm1.929-7.321q0 .679-.482 1.161t-1.161.482-1.161-.482-.482-1.161.482-1.161 1.161-.482 1.161.482.482 1.161zM13.714 4.75l-1.366-.009q-1.241-.009-1.884 0t-1.723.054-1.839.179-1.277.33q-.893.357-1.571 1.036T3.018 7.911q-.196.518-.33 1.277t-.179 1.839-.054 1.723 0 1.884T2.464 16t-.009 1.366 0 1.884.054 1.723.179 1.839.33 1.277q.357.893 1.036 1.571t1.571 1.036q.518.196 1.277.33t1.839.179 1.723.054 1.884 0 1.366-.009 1.366.009 1.884 0 1.723-.054 1.839-.179 1.277-.33q.893-.357 1.571-1.036t1.036-1.571q.196-.518.33-1.277t.179-1.839.054-1.723 0-1.884T24.964 16t.009-1.366 0-1.884-.054-1.723-.179-1.839-.33-1.277q-.357-.893-1.036-1.571t-1.571-1.036q-.518-.196-1.277-.33t-1.839-.179-1.723-.054-1.884 0-1.366.009zM27.429 16q0 4.089-.089 5.661-.179 3.714-2.214 5.75t-5.75 2.214q-1.571.089-5.661.089t-5.661-.089q-3.714-.179-5.75-2.214T.09 21.661Q.001 20.09.001 16t.089-5.661q.179-3.714 2.214-5.75t5.75-2.214q1.571-.089 5.661-.089t5.661.089q3.714.179 5.75 2.214t2.214 5.75q.089 1.571.089 5.661z"/></symbol><symbol id="language-icon" viewBox="0 0 122.88 92.91"><title>language</title><path d="M20.15 83.63 31.63 73.4a2.89 2.89 0 0 1 1.91-.73h27.8a.92.92 0 0 0 .93-.93V65.9H68v5.84a6.71 6.71 0 0 1-6.68 6.68h-26.7L19.3 92.07a2.87 2.87 0 0 1-4.9-2V78.42H6.69A6.71 6.71 0 0 1 0 71.74V28.59a6.76 6.76 0 0 1 6.69-6.68h36.66v5.75H6.69a1 1 0 0 0-.94.93v43.15a.91.91 0 0 0 .28.65 1 1 0 0 0 .66.28h10.58a2.88 2.88 0 0 1 2.88 2.88v8.08Zm.21-19.48 9.24-27.91h8.83l9.24 27.91h-7.32l-1.55-5.08h-9.65l-1.51 5.08Zm10.43-10.91h6.37L34 41.81l-3.21 11.43Zm45.84-39.89h8.7v-2.24a.69.69 0 0 1 .69-.69h4.65a.68.68 0 0 1 .68.69v2.24h9.76a.68.68 0 0 1 .68.69v4.46a.68.68 0 0 1-.68.68h-1.55a26.3 26.3 0 0 1-.91 3.88v.06a26.07 26.07 0 0 1-1.74 4.15 32.34 32.34 0 0 1-2.14 3.43c-.67 1-1.41 1.9-2.2 2.83a35.78 35.78 0 0 0 3.68 3.83 41.43 41.43 0 0 0 5.09 3.74.68.68 0 0 1 .21.94l-2.39 3.73a.69.69 0 0 1-1 .2 45.88 45.88 0 0 1-5.58-4.08 41.42 41.42 0 0 1-4-4.1C87.3 38.93 86.15 40 85 41c-1.36 1.12-2.79 2.2-4.47 3.36a.69.69 0 0 1-1-.17L77 40.53a.69.69 0 0 1 .17-1c1.66-1.14 3-2.19 4.36-3.28 1.16-1 2.28-2 3.49-3.16a44.82 44.82 0 0 1-2.77-4.45A28.84 28.84 0 0 1 80 22.9a.68.68 0 0 1 .47-.84l4.27-1.19a.68.68 0 0 1 .84.47A22.62 22.62 0 0 0 89 28.7l1.27-1.7a26.33 26.33 0 0 0 1.51-2.47A19.43 19.43 0 0 0 93 21.62a24 24 0 0 0 .66-2.44h-17a.69.69 0 0 1-.69-.68V14a.69.69 0 0 1 .69-.69Zm27 56.82L88.26 56.51H61.54a6.73 6.73 0 0 1-6.69-6.68V6.69a6.71 6.71 0 0 1 2-4.72l.2-.18A6.67 6.67 0 0 1 61.54 0h54.65a6.69 6.69 0 0 1 4.71 2l.19.2a6.69 6.69 0 0 1 1.79 4.51v43.12a6.73 6.73 0 0 1-6.69 6.68h-7.7v11.62a2.88 2.88 0 0 1-4.91 2ZM91.26 51.49l11.47 10.23v-8.08a2.88 2.88 0 0 1 2.88-2.88h10.58a.92.92 0 0 0 .65-.28.91.91 0 0 0 .29-.65V6.69a1 1 0 0 0-.22-.58l-.07-.11a1 1 0 0 0-.65-.29H61.54A.94.94 0 0 0 61 6h-.11a.92.92 0 0 0-.28.65v43.18a.92.92 0 0 0 .93.93h27.81a2.86 2.86 0 0 1 1.91.73Z"/></symbol><symbol id="linkedin-square" viewBox="0 0 24 28"><title>linkedin-square</title><path fill="currentColor" d="M3.703 22.094h3.609V11.25H3.703v10.844zM7.547 7.906q-.016-.812-.562-1.344t-1.453-.531-1.477.531-.57 1.344q0 .797.555 1.336t1.445.539h.016q.922 0 1.484-.539t.562-1.336zm9.141 14.188h3.609v-6.219q0-2.406-1.141-3.641T16.14 11q-2.125 0-3.266 1.828h.031V11.25H9.296q.047 1.031 0 10.844h3.609v-6.062q0-.594.109-.875.234-.547.703-.93t1.156-.383q1.813 0 1.813 2.453v5.797zM24 6.5v15q0 1.859-1.32 3.18T19.5 26h-15q-1.859 0-3.18-1.32T0 21.5v-15q0-1.859 1.32-3.18T4.5 2h15q1.859 0 3.18 1.32T24 6.5z"/></symbol><symbol id="pause" viewBox="0 0 24 28"><title>pause</title><path fill="currentColor" d="M24 3v22c0 .547-.453 1-1 1h-8c-.547 0-1-.453-1-1V3c0-.547.453-1 1-1h8c.547 0 1 .453 1 1zM10 3v22c0 .547-.453 1-1 1H1c-.547 0-1-.453-1-1V3c0-.547.453-1 1-1h8c.547 0 1 .453 1 1z"/></symbol><symbol id="play" viewBox="0 0 22 28"><title>play</title><path fill="currentColor" d="M21.625 14.484.875 26.015c-.484.266-.875.031-.875-.516v-23c0-.547.391-.781.875-.516l20.75 11.531c.484.266.484.703 0 .969z"/></symbol><symbol id="stack" viewBox="0 0 48 48"><title>stack</title><path fill="#fff" d="M13 38q-1.2 0-2.1-.9-.9-.9-.9-2.1V7q0-1.2.9-2.1.9-.9 2.1-.9h28q1.2 0 2.1.9.9.9.9 2.1v28q0 1.2-.9 2.1-.9.9-2.1.9Zm0-3h28V7H13v28Zm-6 9q-1.2 0-2.1-.9Q4 42.2 4 41V10h3v31h31v3Zm6-37v28V7Z"/></symbol><symbol id="twitter-square" viewBox="0 0 24 28"><title>twitter-square</title><path fill="currentColor" d="M20 9.531q-.875.391-1.891.531 1.062-.625 1.453-1.828-1.016.594-2.094.797Q16.515 8 15.077 8q-1.359 0-2.32.961t-.961 2.32q0 .453.078.75-2.016-.109-3.781-1.016t-3-2.422q-.453.781-.453 1.656 0 1.781 1.422 2.734-.734-.016-1.563-.406v.031q0 1.172.781 2.086t1.922 1.133q-.453.125-.797.125-.203 0-.609-.063.328.984 1.164 1.625t1.898.656q-1.813 1.406-4.078 1.406-.406 0-.781-.047 2.312 1.469 5.031 1.469 1.75 0 3.281-.555t2.625-1.484 1.883-2.141 1.172-2.531.383-2.633q0-.281-.016-.422.984-.703 1.641-1.703zM24 6.5v15q0 1.859-1.32 3.18T19.5 26h-15q-1.859 0-3.18-1.32T0 21.5v-15q0-1.859 1.32-3.18T4.5 2h15q1.859 0 3.18 1.32T24 6.5z"/></symbol></svg>