<?xml version="1.0" encoding="UTF-8" standalone="no"?>
<!DOCTYPE svg PUBLIC "-//W3C//DTD SVG 1.1//EN" "http://www.w3.org/Graphics/SVG/1.1/DTD/svg11.dtd">
<svg width="100%" height="100%" viewBox="0 0 18 12" version="1.1" xmlns="http://www.w3.org/2000/svg" xmlns:xlink="http://www.w3.org/1999/xlink" xml:space="preserve" xmlns:serif="http://www.serif.com/" style="fill-rule:evenodd;clip-rule:evenodd;stroke-linejoin:round;stroke-miterlimit:2;">
    <g transform="matrix(0.818182,0,0,1,-837.818,-492)">
        <rect x="1024" y="492" width="22" height="12"/>
    </g>
    <g transform="matrix(1,0,0,1,-1024,-493)">
        <path d="M1030,499L1042,495L1042,502L1030,499Z" style="fill:rgb(255,214,51);"/>
    </g>
    <g transform="matrix(1,0,0,1,-1026,-493)">
        <path d="M1030,499L1042,495L1042,502L1030,499Z" style="fill:rgb(255,214,51);"/>
    </g>
    <g transform="matrix(1,0,0,1,-1031,-493)">
        <path d="M1030,499L1042,495L1042,502L1030,499Z" style="fill:rgb(255,214,51);"/>
    </g>
    <g transform="matrix(1,0,0,1,-1028,-493)">
        <path d="M1030,499L1042,495L1042,502L1030,499Z" style="fill:rgb(255,214,51);"/>
    </g>
    <g transform="matrix(0.666667,0,0,0.666667,-684.667,-326.833)">
        <path d="M1030,499L1042,495L1042,502L1030,499Z"/>
    </g>
    <g transform="matrix(0.666667,0,0,0.666667,-681.667,-326.833)">
        <path d="M1030,499L1042,495L1042,502L1030,499Z"/>
    </g>
    <g transform="matrix(0.666667,0,0,0.666667,-678.667,-326.833)">
        <path d="M1030,499L1042,495L1042,502L1030,499Z"/>
    </g>
    <g transform="matrix(0.666667,0,0,0.666667,-676.676,-326.833)">
        <path d="M1030,499L1042,495L1042,502L1030,499Z"/>
    </g>
</svg>
